Coordinates
version=1
nRows=27
nColumns=12
inDegrees=yes

Units are S.I. units (second, meters, Newtons, ...)
Angles are in degrees

endheader
time	SC_y	SC_z	SC_x	AC_y	AC_z	AC_x	GH_y	GH_z	GH_yy	EL_x	PS_y
       0.0              -16.65         -4.669          34.41           62.0          5.689          5.279           35.1          30.38         -158.0          15.92          153.9
   0.01957              -16.65         -4.663           34.4           62.0          5.688          5.279          35.08          30.39         -158.0          15.93          153.9
   0.03914              -16.66         -4.657           34.4           62.0          5.687           5.28          35.07          30.39         -158.0          15.94          153.9
   0.05871              -16.66         -4.651          34.39           62.0          5.685          5.281          35.06          30.39         -158.0          15.95          153.9
   0.07828              -16.67         -4.644          34.38           62.0          5.684          5.281          35.05           30.4         -158.0          15.95          153.9
   0.09785              -16.67         -4.636          34.38           62.0          5.682          5.282          35.04           30.4         -158.0          15.96          153.8
    0.1174              -16.68         -4.628          34.37           62.0           5.68          5.283          35.02          30.41         -158.0          15.97          153.8
     0.137              -16.68          -4.62          34.37           62.0          5.679          5.284          35.01          30.41         -158.0          15.98          153.8
    0.1566              -16.69         -4.611          34.36           62.0          5.677          5.285          34.99          30.42         -158.0          15.99          153.8
    0.1761              -16.69         -4.601          34.35           62.0          5.675          5.286          34.97          30.42         -158.0           16.0          153.8
    0.1957               -16.7         -4.591          34.34           62.0          5.672          5.287          34.96          30.43         -157.9          16.02          153.8
    0.2153               -16.7         -4.579          34.33           62.0           5.67          5.289          34.94          30.44         -157.9          16.03          153.8
    0.2348              -16.71         -4.567          34.32           62.0          5.667           5.29          34.91          30.44         -157.9          16.04          153.8
    0.2544              -16.72         -4.554          34.31           62.0          5.664          5.292          34.89          30.45         -157.9          16.06          153.8
     0.274              -16.73          -4.54           34.3           62.0          5.661          5.293          34.87          30.46         -157.9          16.08          153.8
    0.2936              -16.74         -4.524          34.29           62.0          5.658          5.295          34.84          30.47         -157.9          16.09          153.8
    0.3131              -16.75         -4.508          34.27          61.99          5.655          5.297          34.81          30.48         -157.9          16.11          153.8
    0.3327              -16.76         -4.489          34.26          61.99          5.651          5.299          34.78          30.49         -157.8          16.13          153.8
    0.3523              -16.77         -4.469          34.24          61.99          5.646          5.301          34.74           30.5         -157.8          16.16          153.8
    0.3718              -16.78         -4.448          34.22          61.99          5.642          5.304           34.7          30.51         -157.8          16.18          153.7
    0.3914               -16.8         -4.424           34.2          61.99          5.637          5.306          34.66          30.53         -157.8          16.21          153.7
     0.411              -16.81         -4.397          34.18          61.99          5.631          5.309          34.61          30.54         -157.7          16.24          153.7
    0.4305              -16.83         -4.368          34.16          61.99          5.625          5.313          34.56          30.56         -157.7          16.27          153.7
    0.4501              -16.85         -4.336          34.13          61.99          5.618          5.316           34.5          30.58         -157.7          16.31          153.7
    0.4697              -16.87           -4.3           34.1          61.99           5.61           5.32          34.44           30.6         -157.6          16.35          153.7
    0.4893              -16.89          -4.26          34.07          61.99          5.602          5.325          34.37          30.62         -157.6           16.4          153.6
    0.5088              -16.92         -4.215          34.03          61.99          5.592           5.33          34.29          30.65         -157.5          16.45          153.6
